<svg width="96" height="96" viewBox="0 0 96 96" fill="none" xmlns="http://www.w3.org/2000/svg">
<g filter="url(#filter0_d_115_1398)">
<path d="M5 21.7572C5 9.74105 14.741 0 26.7572 0H69.8539C81.8701 0 91.6111 9.74105 91.6111 21.7572V64.8539C91.6111 76.8701 81.8701 86.6111 69.8539 86.6111H26.7572C14.7411 86.6111 5 76.8701 5 64.8539V21.7572Z" fill="black" fill-opacity="0.04" shape-rendering="crispEdges"/>
<path d="M26.7572 1.43819H69.8539C81.0758 1.43819 90.1729 10.5353 90.1729 21.7572V64.8539C90.1729 76.0758 81.0758 85.1729 69.8539 85.1729H26.7572C15.5353 85.1729 6.43819 76.0758 6.43819 64.8539V21.7572C6.43819 10.5353 15.5353 1.43819 26.7572 1.43819Z" stroke="#ECEDF0" stroke-width="2.87638" shape-rendering="crispEdges"/>
</g>
<g clip-path="url(#clip0_115_1398)">
<path d="M36.0286 71.9671L39.7637 56.7744L16.5914 57.7325L13 71.5455L36.0286 71.9671Z" fill="url(#paint0_linear_115_1398)"/>
<path d="M26.3387 15.0207C26.286 16.7485 26.3866 21.3443 29.483 25.6894C32.4548 29.8573 36.4917 31.4174 38.2035 32.0785C41.2919 33.2714 44.1631 33.4933 46.017 33.6355C48.1249 33.7983 49.9118 33.7361 51.226 33.6355L42.8696 23.0354C42.8696 23.0354 42.0616 22.1459 41.9801 21.8345C41.8971 21.5248 42.1254 21.0074 42.6428 21.1096C43.1602 21.2134 44.8369 21.3587 45.5204 21.8345C46.2039 22.3104 58.4567 33.6355 58.4567 33.6355C62.0545 33.645 64.8442 33.6961 66.3421 33.7488C66.4587 33.7536 67.3721 33.7872 68.5745 33.9357C69.2053 34.0139 69.8616 34.1113 70.5626 34.3157C71.0098 34.4451 73.5919 35.1956 73.5871 36.1617C73.5839 36.9761 71.7395 37.6325 70.7638 37.979C69.983 38.2568 69.3123 38.3814 68.9929 38.4325C67.7505 38.6305 66.7892 38.6209 66.6088 38.6193C65.0742 38.6065 62.2477 38.6273 58.5397 38.6401L47.0103 49.5116C46.6813 49.807 46.1735 50.2095 45.4789 50.5672C45.019 50.8035 44.5335 51.0526 43.8581 51.1484C43.4796 51.2027 42.737 51.2506 41.8236 50.9169C45.0493 46.8241 48.2766 42.7329 51.5023 38.6401C49.1581 38.4852 45.8973 38.4325 42.0408 38.8956C40.0271 39.1383 37.6733 39.4321 34.6936 40.3615C32.7566 40.9667 29.2163 42.1037 25.4205 44.8951C22.4711 47.0636 20.7305 49.229 20.3456 49.716C19.7372 50.4873 18.1403 52.6048 16.8549 55.7043C16.2065 57.2693 15.9191 58.6729 15.143 61.4275C14.8204 62.5709 14.1625 65.8844 13.9262 66.8537C13.6899 67.823 13 71.5501 13 71.5501C13.7473 69.9421 15.0105 67.6857 17.0944 65.4085C17.9982 64.4201 20.4782 61.8778 24.5023 59.9185C27.4565 58.4797 29.9413 57.999 31.998 57.6142C35.08 57.0377 37.7388 56.9595 39.6966 57.0201L54.3128 57.1399C56.4782 57.1686 59.4404 56.993 62.8321 56.1291C64.4306 55.7219 67.8 54.735 71.6102 52.4658C74.2865 50.8738 77.7741 48.7962 80.6277 44.6044C81.7599 42.9405 84.2207 39.2229 84.4587 33.8463C84.5337 32.1504 84.7589 27.0627 81.3527 22.601C78.9574 19.4632 75.9329 18.1729 73.5536 17.1908C69.9255 15.693 66.9441 15.3911 59.0268 15.174C50.5697 14.9424 43.5946 15.0015 40.5014 15.0223C34.5195 15.0622 29.6155 15.043 26.3387 15.0207Z" fill="url(#paint1_linear_115_1398)"/>
</g>
<defs>
<filter id="filter0_d_115_1398" x="0.749078" y="0" width="95.1129" height="95.1132" filterUnits="userSpaceOnUse" color-interpolation-filters="sRGB">
<feFlood flood-opacity="0" result="BackgroundImageFix"/>
<feColorMatrix in="SourceAlpha" type="matrix" values="0 0 0 0 0 0 0 0 0 0 0 0 0 0 0 0 0 0 127 0" result="hardAlpha"/>
<feOffset dy="4.25092"/>
<feGaussianBlur stdDeviation="2.12546"/>
<feComposite in2="hardAlpha" operator="out"/>
<feColorMatrix type="matrix" values="0 0 0 0 0 0 0 0 0 0 0 0 0 0 0 0 0 0 0.25 0"/>
<feBlend mode="normal" in2="BackgroundImageFix" result="effect1_dropShadow_115_1398"/>
<feBlend mode="normal" in="SourceGraphic" in2="effect1_dropShadow_115_1398" result="shape"/>
</filter>
<linearGradient id="paint0_linear_115_1398" x1="39.7637" y1="64.3708" x2="13" y2="64.3708" gradientUnits="userSpaceOnUse">
<stop stop-color="#168140"/>
<stop offset="1" stop-color="#1B2614"/>
</linearGradient>
<linearGradient id="paint1_linear_115_1398" x1="5.62402" y1="58.7751" x2="78.1861" y2="16.8794" gradientUnits="userSpaceOnUse">
<stop stop-color="#168140"/>
<stop offset="1" stop-color="#1B2614"/>
</linearGradient>
<clipPath id="clip0_115_1398">
<rect width="71.4922" height="56.967" fill="white" transform="translate(13 15)"/>
</clipPath>
</defs>
</svg>
