<svg width="448" height="357" viewBox="0 0 448 357" fill="none" xmlns="http://www.w3.org/2000/svg">
<g clip-path="url(#clip0_110_1113)">
<path d="M144.21 356.74L167.6 261.6L22.49 267.6L0 354.1L144.21 356.74Z" fill="url(#paint0_linear_110_1113)"/>
<path d="M83.53 0.129923C83.2 10.9499 83.83 39.7299 103.22 66.9399C121.83 93.0399 147.11 102.81 157.83 106.95C177.17 114.42 195.15 115.81 206.76 116.7C219.96 117.72 231.15 117.33 239.38 116.7L187.05 50.3199C187.05 50.3199 181.99 44.7499 181.48 42.7999C180.96 40.8599 182.39 37.6199 185.63 38.2599C188.87 38.9099 199.37 39.8199 203.65 42.7999C207.93 45.7799 284.66 116.7 284.66 116.7C307.19 116.76 324.66 117.08 334.04 117.41C334.77 117.44 340.49 117.65 348.02 118.58C351.97 119.07 356.08 119.68 360.47 120.96C363.27 121.77 379.44 126.47 379.41 132.52C379.39 137.62 367.84 141.73 361.73 143.9C356.84 145.64 352.64 146.42 350.64 146.74C342.86 147.98 336.84 147.92 335.71 147.91C326.1 147.83 308.4 147.96 285.18 148.04L212.98 216.12C210.92 217.97 207.74 220.49 203.39 222.73C200.51 224.21 197.47 225.77 193.24 226.37C190.87 226.71 186.22 227.01 180.5 224.92C200.7 199.29 220.91 173.67 241.11 148.04C226.43 147.07 206.01 146.74 181.86 149.64C169.25 151.16 154.51 153 135.85 158.82C123.72 162.61 101.55 169.73 77.78 187.21C59.31 200.79 48.41 214.35 46 217.4C42.19 222.23 32.19 235.49 24.14 254.9C20.08 264.7 18.28 273.49 13.42 290.74C11.4 297.9 7.28 318.65 5.8 324.72C4.32 330.79 0 354.13 0 354.13C4.68 344.06 12.59 329.93 25.64 315.67C31.3 309.48 46.83 293.56 72.03 281.29C90.53 272.28 106.09 269.27 118.97 266.86C138.27 263.25 154.92 262.76 167.18 263.14L258.71 263.89C272.27 264.07 290.82 262.97 312.06 257.56C322.07 255.01 343.17 248.83 367.03 234.62C383.79 224.65 405.63 211.64 423.5 185.39C430.59 174.97 446 151.69 447.49 118.02C447.96 107.4 449.37 75.5399 428.04 47.5999C413.04 27.9499 394.1 19.8699 379.2 13.7199C356.48 4.33992 337.81 2.44992 288.23 1.08992C235.27 -0.360077 191.59 0.00992304 172.22 0.139923C134.76 0.389923 104.05 0.269923 83.53 0.129923Z" fill="url(#paint1_linear_110_1113)"/>
</g>
<defs>
<linearGradient id="paint0_linear_110_1113" x1="167.6" y1="309.17" x2="0" y2="309.17" gradientUnits="userSpaceOnUse">
<stop stop-color="#168140"/>
<stop offset="1" stop-color="#1B2614"/>
</linearGradient>
<linearGradient id="paint1_linear_110_1113" x1="-46.19" y1="274.13" x2="408.21" y2="11.7699" gradientUnits="userSpaceOnUse">
<stop stop-color="#168140"/>
<stop offset="1" stop-color="#1B2614"/>
</linearGradient>
<clipPath id="clip0_110_1113">
<rect width="447.7" height="356.74" fill="white"/>
</clipPath>
</defs>
</svg>
